<svg data-v-0dd9719b="" version="1.0" xmlns="http://www.w3.org/2000/svg" xmlns:xlink="http://www.w3.org/1999/xlink" width="100%" height="100%" viewBox="0 0 340.000000 250.000000" preserveAspectRatio="xMidYMid meet" color-interpolation-filters="sRGB" style="margin: auto;"> <rect data-v-0dd9719b="" x="0" y="0" width="100%" height="100%" fill="#fff" fill-opacity="1" class="background"></rect> <rect data-v-0dd9719b="" x="0" y="0" width="100%" height="100%" fill="url(#watermark)" fill-opacity="1" class="watermarklayer"></rect> <g data-v-0dd9719b="" fill="#333" class="icon-text-wrapper icon-svg-group iconsvg" transform="translate(49.91999816894531,88.27804565429688)"><g class="iconsvg-imagesvg" transform="translate(0,0)"><g><rect fill="#333" fill-opacity="0" stroke-width="2" x="0" y="0" width="60" height="73.44390721586389" class="image-rect"></rect> <svg x="0" y="0" width="60" height="73.44390721586389" filtersec="colorsb9333136995" class="image-svg-svg primary" style="overflow: visible;"><svg xmlns="http://www.w3.org/2000/svg" viewBox="0.0007322460296563804 -0.00128936767578125 81.70841979980469 100.01615905761719"><path d="M65.68 67.05a6.52 6.52 0 1 1-6.52 6.51 6.51 6.51 0 0 1 6.52-6.51z" fill="#fc0"></path><path d="M53 .47l-.5.14a15.39 15.39 0 0 0-8 6 53.55 53.55 0 0 1 15.09 10.94C65.14 23.21 69.48 31 72.42 39a39.39 39.39 0 0 0-43.51-16.42l-.75.22a39.43 39.43 0 1 0 35.27 69.07c.52-.4-5.26-14.52-16.7-10.29-3 1.06-8.85 3.57-20.21-3C18 73.7 15.3 62.74 18.44 53.46a22.16 22.16 0 0 1 42.39 1.39A8.64 8.64 0 0 0 71.41 61c11.12-3 11.82-28.17 8.68-38.49C75.5 7.41 63.45-2.3 53 .47z" fill="#0077f0"></path><path d="M51.51 57a13.16 13.16 0 0 1-9.31 16.11 13.18 13.18 0 0 1-16.13-9.31 13.17 13.17 0 0 1 9.31-16.13A13.17 13.17 0 0 1 51.51 57z" fill="#3eae31"></path></svg></svg> <!----></g></g> <g transform="translate(67,11.527889251708984)"><g data-gra="path-name" fill-rule="" class="tp-name iconsvg-namesvg" transform="translate(0,0)"><g transform="scale(1)"><g><path d="M3.24-25.65L5.54-28.39 12.6-22.5 10.35-19.75 3.24-25.65ZM10.35-10.3L3.24-16.2 5.54-18.95 12.6-13.05 10.35-10.3ZM12.55-6.03L5.54 6.88 2.43 5.22 9.45-7.69 12.55-6.03ZM17.68-28.93L20.97-27.63Q20.79-27.18 20.63-26.75 20.47-26.32 20.25-25.88L20.25-25.88 42.07-25.88 42.07-22.32 18.5-22.32Q17.28-20.16 16.36-18.9 15.43-17.64 15.34-17.55L15.34-17.55 13.99-18.68 12.6-19.75Q12.6-19.75 13.12-20.45 13.63-21.15 14.38-22.36 15.12-23.58 16.02-25.24 16.92-26.91 17.68-28.93L17.68-28.93ZM42.21-7.6L39.51-7.6 39.51-1.75 41.76-1.75 41.76 1.8 39.51 1.8 39.51 2.65Q39.51 4.32 38.32 5.51 37.13 6.71 35.46 6.71L35.46 6.71 31.27 6.71 31.27 3.15 35.46 3.15Q35.95 3.15 35.95 2.65L35.95 2.65 35.95 1.8 15.34 1.8 16.38-7.6 14.4-7.6 14.4-11.16 16.79-11.16 17.82-20.25 35.95-20.25 35.95-21.06 39.51-21.06 39.51-11.16 42.21-11.16 42.21-7.6ZM21.02-16.7L20.38-11.16 26.55-11.16 24.79-13.54 27.63-15.66 30.96-11.16 35.95-11.16 35.95-16.7 21.02-16.7ZM35.95-1.75L35.95-7.6 19.98-7.6 19.3-1.75 26.46-1.75 24.3-4.68 27.13-6.79 30.87-1.75 35.95-1.75ZM69.21-28.35L69.21-25.92 87.25-25.92 87.25-22.36 69.21-22.36 69.21-19.98 81.77-19.98 81.77-20.79 85.32-20.79 85.32 2.52Q85.32 4.23 84.13 5.4 82.94 6.57 81.27 6.57L81.27 6.57 76.5 6.57 76.5 3.01 81.27 3.01Q81.77 3.01 81.77 2.52L81.77 2.52 81.77-16.43 53.23-16.43 53.23 6.57 49.68 6.57 49.68-19.98 65.7-19.98 65.7-22.36 47.84-22.36 47.84-25.92 65.7-25.92 65.7-28.35 69.21-28.35ZM80.01 0.85L69.21 0.85 69.21 6.43 65.7 6.43 65.7 0.85 54.9 0.85 54.9-2.65 65.7-2.65 65.7-6.57 56.25-6.57 56.25-10.13 59.49-10.13 57.11-12.91 59.76-15.21 63.5-10.84 62.64-10.13 71.06-10.13 74.97-15.16 77.76-12.96 75.56-10.13 78.66-10.13 78.66-6.57 69.21-6.57 69.21-2.65 80.01-2.65 80.01 0.85ZM129.1 2.25L129.1-1.67 132.62-1.67 132.62 2.25Q132.62 3.92 131.44 5.08 130.28 6.25 128.56 6.25L128.56 6.25 120.56 6.25 120.56-18.72 107.33-18.72 107.33-17.1Q107.33-13.81 106.45-10.82 105.57-7.83 104.24-5.26 102.91-2.7 101.36-0.61 99.81 1.48 98.44 2.99 97.06 4.5 96.12 5.38 95.17 6.25 95.04 6.34L95.04 6.34 93.92 5 92.79 3.65Q92.79 3.6 93.62 2.86 94.45 2.11 95.67 0.77 96.89-0.58 98.3-2.48 99.72-4.37 100.94-6.66 102.15-8.96 102.96-11.59 103.77-14.22 103.77-17.1L103.77-17.1 103.77-18.72 94.64-18.72 94.64-22.27 103.77-22.27 103.77-27.9 107.33-27.9 107.33-22.27 120.56-22.27 120.56-23.13 124.06-23.13 124.06 2.75 128.56 2.75Q128.79 2.75 128.95 2.61 129.1 2.48 129.1 2.25L129.1 2.25ZM138.38-7.6L138.01-11.12Q142.38-11.61 146.27-12.31 150.16-13 153.54-13.86L153.54-13.86 149.22-17.59 151.51-20.29 157.63-15.03Q160.47-15.88 162.79-16.74 165.1-17.59 166.93-18.36 168.75-19.13 170.03-19.75 171.31-20.38 172.03-20.79L172.03-20.79 172.03-22.09 146.03-22.09Q145.03-20.79 144.07-19.71 143.1-18.63 142.36-17.86 141.62-17.1 141.12-16.67 140.63-16.25 140.58-16.2L140.58-16.2 138.33-18.95Q138.33-18.95 139.14-19.66 139.95-20.38 141.12-21.67 142.29-22.95 143.59-24.73 144.9-26.5 145.98-28.62L145.98-28.62 149.13-27.04Q148.95-26.68 148.77-26.32 148.59-25.96 148.41-25.61L148.41-25.61 172.03-25.61 172.03-26.46 175.59-26.46 175.59-18.77 174.74-18.22Q174.6-18.13 173.41-17.48 172.22-16.83 170.06-15.84 167.89-14.85 164.79-13.66 161.69-12.46 157.68-11.32 153.68-10.17 148.84-9.18 144-8.19 138.38-7.6L138.38-7.6ZM174.78-8.23L174.78 2.21Q174.78 3.92 173.61 5.08 172.44 6.25 170.73 6.25L170.73 6.25 142.2 6.25 142.2-7.29 171.22-7.29 171.22-8.23 174.78-8.23ZM145.75-3.73L145.75 2.7 170.73 2.7Q171.22 2.7 171.22 2.21L171.22 2.21 171.22-3.73 145.75-3.73Z" transform="translate(-2.430000066757202, 28.93000030517578)"></path></g> <!----> <!----> <!----> <!----> <!----> <!----> <!----></g></g> <g data-gra="path-slogan" fill-rule="" class="tp-slogan iconsvg-slogansvg" fill="#333" transform="translate(5,41.810001373291016)"><rect x="0" height="1" y="3.7899999618530273" width="40.81999969482422"></rect> <rect height="1" y="3.7899999618530273" width="40.81999969482422" x="122.34000396728516"></rect> <g transform="translate(43.81999969482422,0)"><g transform="scale(1)"><path d="M2.06-5.06L6.56-5.06L6.56-8.58L7.73-8.58L7.73 0L6.56 0L6.56-3.98L2.06-3.98L2.06 0L0.89 0L0.89-8.58L2.06-8.58L2.06-5.06ZM15.19 0L14.34-2.48L10.88-2.48L9.98 0L8.81 0L12.05-8.58L13.36-8.58L16.45 0L15.19 0ZM12.61-7.31L11.25-3.52L13.92-3.52L12.66-7.31L12.61-7.31ZM17.67-8.58L18.84-8.58L18.84 0L17.67 0L17.67-8.58ZM22.22-8.58L26.53-1.64L26.53-8.58L27.66-8.58L27.66 0L26.34 0L21.98-6.94L21.94-6.94L21.94 0L20.81 0L20.81-8.58L22.22-8.58ZM35.11 0L34.27-2.48L30.80-2.48L29.91 0L28.73 0L31.97-8.58L33.28-8.58L36.38 0L35.11 0ZM32.53-7.31L31.17-3.52L33.84-3.52L32.58-7.31L32.53-7.31ZM38.81-8.58L43.13-1.64L43.13-8.58L44.25-8.58L44.25 0L42.94 0L38.58-6.94L38.53-6.94L38.53 0L37.41 0L37.41-8.58L38.81-8.58ZM50.77-8.58L55.08-1.64L55.08-8.58L56.20-8.58L56.20 0L54.89 0L50.53-6.94L50.48-6.94L50.48 0L49.36 0L49.36-8.58L50.77-8.58ZM58.17-8.58L59.34-8.58L59.34 0L58.17 0L58.17-8.58ZM62.72-8.58L67.03-1.64L67.03-8.58L68.16-8.58L68.16 0L66.84 0L62.48-6.94L62.44-6.94L62.44 0L61.31 0L61.31-8.58L62.72-8.58ZM71.25-1.03L76.41-1.03L76.41 0L70.08 0L70.08-8.58L76.31-8.58L76.31-7.59L71.25-7.59L71.25-4.92L75.94-4.92L75.94-3.89L71.25-3.89L71.25-1.03Z" transform="translate(-0.890625, 8.578125)"></path></g></g></g></g></g><defs v-gra="od"></defs></svg>